<svg width="200" height="98" viewBox="0 0 200 98" fill="none" xmlns="http://www.w3.org/2000/svg">
<path d="M100.71 59.8747C100.71 60.3675 100.71 60.4795 101.038 60.7819L102.875 62.6187V62.6971H94.7316V59.1691C93.9118 61.4942 91.7441 63.032 89.3316 62.9995C85.1453 62.9995 82.1065 59.6395 82.1065 53.4571C82.1065 47.6668 85.3855 43.8028 89.9874 43.8028C92.0274 43.6714 93.9258 44.8754 94.7205 46.8044V39.0208C94.7504 38.8445 94.7314 38.6632 94.6658 38.4972C94.6002 38.3311 94.4904 38.1867 94.3488 38.08L92.5999 36.3552V36.2768L100.71 35.3024V59.8747ZM94.7316 58.7547V47.1404C94.4423 46.7707 94.073 46.4733 93.6521 46.2714C93.2313 46.0694 92.7704 45.9682 92.3048 45.9756C90.3264 45.9756 88.4135 47.8124 88.4135 53.2667C88.4135 58.3739 90.064 60.1771 92.1191 60.1771C92.6343 60.1654 93.1395 60.0305 93.5935 59.7833C94.0474 59.5361 94.4373 59.1836 94.7312 58.7547H94.7316ZM106.11 62.6971V47.0172C106.136 46.8451 106.12 46.6693 106.062 46.5052C106.005 46.3411 105.909 46.1938 105.782 46.0764L103.979 44.1724V44.094H112.122V59.9979C112.122 60.4907 112.122 60.6027 112.45 60.9051L114.243 62.6299V62.7083L106.11 62.6971ZM105.815 38.3596C105.815 36.5042 107.283 35 109.094 35C110.905 35 112.373 36.5045 112.373 38.36C112.373 40.2154 110.905 41.72 109.094 41.72C107.284 41.72 105.815 40.2154 105.815 38.36V38.3596ZM134.093 59.8411C134.093 60.3339 134.093 60.4795 134.42 60.7819L136.257 62.6187V62.6971H128.07V58.6763C127.324 61.2187 125.053 62.9696 122.463 62.9995C118.834 62.9995 116.888 60.2891 116.888 55.1595C116.888 52.6843 116.888 49.974 116.964 46.9276C116.994 46.7605 116.979 46.5884 116.922 46.429C116.864 46.2696 116.766 46.1286 116.636 46.0204L114.833 44.1724V44.094H122.911V54.3195C122.911 57.6795 123.392 59.9195 125.446 59.9195C125.992 59.8835 126.519 59.7099 126.981 59.4146C127.443 59.1192 127.825 58.7114 128.092 58.2283V47.0284C128.118 46.8563 128.101 46.6805 128.044 46.5164C127.987 46.3523 127.891 46.205 127.764 46.0876L125.949 44.1724V44.094H134.093V59.8411ZM161.813 62.6971C161.813 62.0923 161.922 54.3867 161.922 52.6171C161.922 49.2572 161.408 46.9388 159.102 46.9388C158.528 46.9579 157.967 47.1138 157.463 47.3941C156.96 47.6743 156.529 48.0709 156.206 48.5516C156.437 49.5988 156.547 50.6702 156.533 51.7435C156.533 54.0731 156.457 57.0411 156.424 60.0091C156.394 60.1762 156.409 60.3483 156.467 60.5077C156.524 60.6671 156.623 60.8081 156.752 60.9163L158.589 62.6411V62.7195H150.369C150.369 62.1595 150.478 54.4091 150.478 52.6395C150.478 49.2236 149.964 46.9612 147.691 46.9612C147.137 46.9826 146.598 47.1459 146.124 47.4358C145.65 47.7257 145.256 48.1327 144.98 48.6188V60.0427C144.98 60.5355 144.98 60.6475 145.308 60.9499L147.1 62.6747V62.7531H138.968V47.0732C138.994 46.9011 138.977 46.7253 138.92 46.5612C138.863 46.3971 138.767 46.2498 138.64 46.1324L136.836 44.1724V44.094H144.98V48.0812C145.735 45.4492 148.141 43.6803 150.817 43.7916C153.528 43.7916 155.364 45.3372 156.14 48.2716C157.002 45.5653 159.483 43.7494 162.261 43.7916C165.89 43.7916 167.945 46.5356 167.945 51.7211C167.945 54.1963 167.869 57.0187 167.836 59.9867C167.804 60.1581 167.823 60.3351 167.889 60.4961C167.955 60.6572 168.065 60.7954 168.207 60.8939L170 62.6187V62.6971H161.813ZM59.5127 60.2555L61.9285 62.6187V62.6971H49.6752V62.6187L52.1347 60.2555C52.2638 60.1473 52.3622 60.0063 52.4199 59.8469C52.4775 59.6875 52.4922 59.5154 52.4626 59.3483V44.2396C52.4626 43.6012 52.4626 42.7388 52.5717 41.9996L44.308 62.9999H44.21L35.6512 43.68C35.4652 43.1984 35.4106 43.1648 35.2902 42.84V55.5071C35.1877 56.3544 35.3283 57.2138 35.6951 57.9823L39.1379 62.6191V62.6975H30V62.6191L33.4433 57.9711C33.807 57.2056 33.9473 56.3507 33.8474 55.5071V41.5072C33.9038 40.819 33.7008 40.1346 33.2793 39.592L30.8418 36.3552V36.2768H39.5863L46.9098 52.6399L53.359 36.2768H61.9174V36.3552L59.5127 39.0992C59.3711 39.2059 59.2613 39.3503 59.1957 39.5164C59.1301 39.6824 59.1112 39.8637 59.141 40.04V59.3487C59.1097 59.5202 59.1281 59.6972 59.1942 59.8582C59.2603 60.0193 59.371 60.1574 59.5131 60.2559L59.5127 60.2555ZM69.0991 52.6843V52.7627C69.0991 57.5563 71.5148 59.4827 74.3457 59.4827C76.7095 59.5652 78.8976 58.207 79.9203 56.0219H79.9969C79.0133 60.7595 76.1492 62.9995 71.8644 62.9995C67.2407 62.9995 62.8794 60.1435 62.8794 53.5243C62.8794 46.5692 67.2518 43.7916 72.0829 43.7916C75.9745 43.7916 80.1171 45.6732 80.1171 51.7211V52.6843H69.0991ZM69.0991 51.7211H74.4879V50.7468C74.4879 45.8188 73.4932 44.5084 71.9956 44.5084C70.1811 44.5084 69.0773 46.4684 69.0773 51.7211H69.0991Z" fill="#3D4147"/>
</svg>
